<?xml version="1.0" encoding="UTF-8"?>
<svg id="Lag_1" data-name="Lag 1" xmlns="http://www.w3.org/2000/svg" viewBox="0 0 162.49 105.01">
  <defs>
    <style>
      .cls-1 {
        fill: #fdfdfd;
        stroke-width: 0px;
      }
    </style>
  </defs>
  <path class="cls-1" d="M82.97,95.89c3.44-3.36,6.39-6.98,9.03-10.85.36-.52.82-.5,1.34-.5,5.24,0,10.45-.31,15.55-1.61,6.96-1.78,12.86-5.14,16.8-11.37,2.39-3.77,3.67-7.94,4.23-12.34.87-6.82.67-13.58-1.56-20.15-2.64-7.78-7.95-12.95-15.6-15.8-6.02-2.24-12.3-2.8-18.65-2.8-1.32,0-2.11-.4-2.83-1.48-2.32-3.48-5.08-6.6-8.15-9.44-.1-.09-.26-.15-.19-.37.39-.2.83-.09,1.25-.09,7.13,0,14.26-.02,21.39.01.89,0,1.16-.15.85-1.08-.33-1.01-.63-2.01-1.17-2.94-.59-1.02-.97-2.12-1.14-3.29-.24-1.66.18-2.1,1.79-1.58,2.5.8,4.79,1.99,6.32,4.27.78,1.16,1.5,2.35,1.97,3.65.29.8.73.99,1.53.98,2.63-.05,5.27.08,7.9-.05,5.27-.26,10.23,1.04,15.06,2.89,11.66,4.48,18.9,12.94,21.83,24.99,2.69,11.07,2.65,22.19-.58,33.16-3.58,12.15-11.71,19.93-23.68,23.81-4.05,1.31-8.16,2.22-12.47,2-2.77-.14-5.56-.01-8.34-.04-.59,0-.89.16-1.13.73-.42,1.01-.95,1.97-1.46,2.94-1.51,2.83-4.07,4.32-6.98,5.28-1.51.49-1.95.07-1.76-1.52.14-1.17.52-2.28,1.11-3.3.57-.99.91-2.06,1.24-3.15.23-.78.1-.99-.74-.98-7.09.03-14.19.02-21.28.02h-1.49ZM153.86,27.99c-2.62-5.1-6.22-8.87-10.96-11.54-1.98-1.12-4.05-2.02-6.31-2.41-1.38-.23-1.45-.16-1.23,1.24.35,2.19,1.52,3.95,3.16,5.35,4.38,3.73,9.7,5.51,15.34,7.35ZM153.83,77.04c-.94.29-1.6.47-2.24.7-4.29,1.47-8.51,3.08-12.17,5.86-2.06,1.56-3.64,3.49-4.07,6.14-.23,1.39-.11,1.48,1.24,1.22,3.4-.66,6.39-2.23,9.16-4.25,3.41-2.49,6.05-5.65,8.08-9.66Z"/>
  <path class="cls-1" d="M43.47,9.09c23.98.02,43.41,19.51,43.35,43.52-.06,24.19-19.88,43.61-44.02,43.28C19.16,95.56-.04,76.29,0,52.38.04,28.46,19.52,9.07,43.47,9.09ZM43.42,82.31c16.42,0,29.81-13.31,29.82-29.63,0-16.63-13.25-29.99-29.78-30.01-16.48-.02-29.89,13.35-29.89,29.81s13.34,29.84,29.84,29.84Z"/>
</svg>