<?xml version="1.0" encoding="utf-8"?>
<!-- Generator: Adobe Illustrator 28.2.0, SVG Export Plug-In . SVG Version: 6.00 Build 0)  -->
<svg version="1.1" id="Lag_1" xmlns="http://www.w3.org/2000/svg" xmlns:xlink="http://www.w3.org/1999/xlink" x="0px" y="0px"
	 viewBox="0 0 80 40" style="enable-background:new 0 0 80 40;" xml:space="preserve">
<style type="text/css">
	.st0{fill-rule:evenodd;clip-rule:evenodd;fill:#FFFFFF;}
</style>
<g>
	<path class="st0" d="M23.4,0.4c-4.2,0.9-7.9,3.2-14.3,8.8C2.3,15.3,0.9,17,0.2,21.1C-0.6,25.5,0.6,27.5,6,31c2,1.3,5,3.4,6.7,4.7
		c6.4,4.9,9.3,4.8,15.2-0.8c10.5-9.9,9.8-9.7,15.3-5.1c6.3,5.3,13.3,8.1,21.3,8.4c11.2,0.5,17.2-5.4,15.2-14.9
		C77.5,13.2,70.9,3.7,65.6,3c-4.9-0.6-8.2,1.6-19.9,13.5c-11,11.2-16.6,14.9-22.7,15c-4.5,0-7.8-3.3-8.9-9.1
		c-1.5-7.6,5.4-16.5,13.1-17c3-0.2,4.4,0.3,8.1,2.7c3.9,2.5,5.5,2.7,6.5,0.6c0.9-1.9-0.4-3.5-4.4-5.6C32.6,0.5,27.6-0.5,23.4,0.4z
		 M62.9,5.9c4.5,1.5,10.1,13.5,9,19.4c-1.6,9-15.5,12.9-23.3,6.5c-4.7-3.8-4-9.8,2-17.8C55,8,59.8,4.8,62.9,5.9z"/>
</g>
</svg>
