<?xml version="1.0" encoding="utf-8"?>
<!-- Generator: Adobe Illustrator 28.2.0, SVG Export Plug-In . SVG Version: 6.00 Build 0)  -->
<svg version="1.1" id="Lag_1" xmlns="http://www.w3.org/2000/svg" xmlns:xlink="http://www.w3.org/1999/xlink" x="0px" y="0px"
	 viewBox="0 0 338 336" style="enable-background:new 0 0 338 336;" xml:space="preserve">
<style type="text/css">
	.st0{fill:#FFFFFF;}
</style>
<path class="st0" d="M169.7,0.1C77,0.1,1.9,75.3,1.9,168S77,335.8,169.7,335.8S337.5,260.7,337.5,168S262.4,0.1,169.7,0.1z
	 M133,310.9c-4.5-1.1-8.8-2.3-13.1-3.8c-58.3-19.9-92.3-74.7-98.1-122.5c-6.2-51.2,21.2-94,21.2-94l4.6,19.2
	c-8.3,21.9-10,18.1-13.1,63.3c8.4,90.8,73.9,115,85.3,118.5V87.8c0-0.7,0-1.4-0.1-2.1c-1.1-13-12-23.2-25.4-23.2
	C80.4,62.4,69,73.8,69,87.8c0,14,11.4,25.3,25.5,25.3v13.5c-21.3,0-38.5-17.2-38.5-38.5c0-21.3,17.2-38.5,38.5-38.5
	c21.2,0,38.4,17.1,38.5,38.2V310.9z M148.5,313.8c-1.5-0.7,0-293,0-293l12.8-0.9l0.1,295.2C161.5,315.1,150,314.6,148.5,313.8z
	 M176.7,315.1V19.9l13,1.3l0.4,292C190.1,313.2,184.5,314.8,176.7,315.1z M290.9,225c8.3-21.9,10-18.1,13.1-63.3
	c-8.4-90.8-73.9-115-85.3-118.5v204.1c0,0.7,0,1.4,0.1,2.1c1.1,13,12,23.2,25.4,23.2c14.1,0,25.5-11.3,25.5-25.3
	s-11.4-25.3-25.5-25.3v-13.5c21.3,0,38.5,17.2,38.5,38.5c0,21.3-17.2,38.5-38.5,38.5c-21.2,0-38.3-17.1-38.5-38.2V24
	c4.5,1.1,8.8,2.3,13.1,3.8c58.3,19.9,92.3,74.7,98.1,122.5c6.2,51.2-21.2,94-21.2,94L290.9,225z"/>
</svg>
