<?xml version="1.0" encoding="utf-8"?>
<!-- Generator: Adobe Illustrator 28.2.0, SVG Export Plug-In . SVG Version: 6.00 Build 0)  -->
<svg version="1.1" id="Layer_1" xmlns="http://www.w3.org/2000/svg" xmlns:xlink="http://www.w3.org/1999/xlink" x="0px" y="0px"
	 viewBox="0 0 62.3 91.1" style="enable-background:new 0 0 62.3 91.1;" xml:space="preserve">
<style type="text/css">
	.st0{fill:#FFFFFF;}
</style>
<g>
	<g>
		<g>
			<g>
				<path class="st0" d="M61.3,31.4c0-3.9-0.8-7.7-2.1-11.1c-1.4-3.5-6.4-3.2-7.4,0.4c-2.5,8.9-10.7,16-20.5,15.8
					c-9.9,0.2-18.1-6.9-20.5-15.8c-1-3.6-6.1-3.9-7.4-0.4C-0.5,30,0.8,41.6,7.5,50c1,1.2,1.1,2.9,0.4,4.3c-6.6,12.3-2,27.5,9.1,34.7
					c2.8,1.8,6.6-0.5,6-3.9c-1.2-7.1-0.1-15.8,3.2-20.2c1.2-1.8,3.1-3.3,5.1-3.3c2,0,4,1.5,5.1,3.3c3.3,4.4,4.3,13.1,3.2,20.2
					c-0.6,3.3,3.2,5.7,6,3.9c11.1-7.2,15.7-22.4,9-34.7c-0.8-1.4-0.5-3.1,0.4-4.3C59,44.7,61.3,38.4,61.3,31.4z"/>
			</g>
		</g>
	</g>
	<g>
		<g>
			<circle class="st0" cx="31.3" cy="15.3" r="13.9"/>
		</g>
	</g>
</g>
</svg>
