<?xml version="1.0" encoding="utf-8"?>
<!-- Generator: Adobe Illustrator 28.2.0, SVG Export Plug-In . SVG Version: 6.00 Build 0)  -->
<svg version="1.1" id="Layer_1" xmlns="http://www.w3.org/2000/svg" xmlns:xlink="http://www.w3.org/1999/xlink" x="0px" y="0px"
	 viewBox="0 0 765 150.5" style="enable-background:new 0 0 765 150.5;" xml:space="preserve">
<g>
	<path d="M125.7,21.7v122.7H95.4V93.9h-47v50.5H18.2V21.7h30.2v48.1h47V21.7H125.7z"/>
	<path d="M166.3,139.7c-7.7-4.1-13.8-9.9-18.2-17.5c-4.4-7.6-6.6-16.4-6.6-26.6c0-10,2.2-18.8,6.7-26.5c4.5-7.6,10.6-13.5,18.4-17.6
		c7.8-4.1,16.5-6.1,26.2-6.1c9.7,0,18.4,2,26.2,6.1c7.8,4.1,13.9,9.9,18.4,17.6c4.5,7.6,6.7,16.5,6.7,26.5c0,10-2.3,18.8-6.8,26.5
		c-4.5,7.6-10.7,13.5-18.6,17.6c-7.8,4.1-16.6,6.1-26.3,6.1C182.7,145.8,174,143.8,166.3,139.7z M207.1,113.6
		c4.1-4.2,6.1-10.2,6.1-18c0-7.8-2-13.8-5.9-18c-4-4.2-8.8-6.3-14.6-6.3c-5.9,0-10.8,2.1-14.7,6.2c-3.9,4.1-5.8,10.2-5.8,18.1
		c0,7.8,1.9,13.8,5.7,18c3.8,4.2,8.6,6.3,14.4,6.3C198.1,119.9,203.1,117.8,207.1,113.6z"/>
	<path d="M303.6,50.5c5.3-3.1,11.2-4.6,17.7-4.6v31.6H313c-7.5,0-13.2,1.6-17,4.8c-3.8,3.2-5.7,8.8-5.7,16.9v45.3h-30.2V46.9h30.2
		v16.3C293.9,57.8,298.3,53.5,303.6,50.5z"/>
	<path d="M338,32.1c-3.4-3.1-5-6.9-5-11.4c0-4.7,1.7-8.5,5-11.6c3.4-3.1,7.7-4.6,13-4.6c5.2,0,9.5,1.5,12.8,4.6c3.4,3.1,5,7,5,11.6
		c0,4.5-1.7,8.4-5,11.4c-3.4,3.1-7.6,4.6-12.8,4.6C345.7,36.7,341.3,35.2,338,32.1z M366,46.9v97.5h-30.2V46.9H366z"/>
	<path d="M416.2,119.8H459v24.6h-76.6v-23.8l41-49.1h-40.7V46.9h75.3v23.8L416.2,119.8z"/>
	<path d="M568.2,102.8h-68.4c0.5,6.1,2.4,10.7,5.9,13.9c3.5,3.2,7.8,4.8,12.8,4.8c7.5,0,12.8-3.1,15.7-9.4h32.2
		c-1.7,6.4-4.6,12.2-8.9,17.3c-4.3,5.1-9.7,9.1-16.2,12.1c-6.5,2.9-13.7,4.4-21.8,4.4c-9.7,0-18.3-2-25.8-6.1
		c-7.5-4.1-13.4-9.9-17.7-17.5c-4.2-7.6-6.4-16.4-6.4-26.6s2.1-19,6.3-26.6c4.2-7.6,10.1-13.4,17.6-17.5c7.5-4.1,16.2-6.1,26-6.1
		c9.5,0,18,2,25.5,5.9c7.4,4,13.2,9.6,17.4,17c4.2,7.3,6.3,15.9,6.3,25.7C568.7,96.9,568.5,99.8,568.2,102.8z M537.7,86.2
		c0-5.1-1.8-9.2-5.3-12.2c-3.5-3-8-4.5-13.3-4.5c-5.1,0-9.3,1.5-12.8,4.4c-3.5,2.9-5.6,7.1-6.5,12.4H537.7z"/>
	<path d="M672.4,56.9c6.9,7.4,10.3,17.6,10.3,30.5v57h-30.1v-53c0-6.5-1.7-11.6-5.1-15.2c-3.4-3.6-8-5.4-13.8-5.4
		c-5.8,0-10.4,1.8-13.8,5.4c-3.4,3.6-5.1,8.7-5.1,15.2v53h-30.2V46.9h30.2v12.9c3.1-4.3,7.2-7.7,12.4-10.2c5.2-2.5,11-3.8,17.5-3.8
		C656.3,45.8,665.5,49.5,672.4,56.9z"/>
</g>
<path d="M750.6,142.3c0,0.3,0,0.7,0,1h-47.1c0-0.3,0-0.7,0-1c0-13,10.6-23.6,23.6-23.6C740,118.7,750.6,129.2,750.6,142.3z"/>
</svg>
