<?xml version="1.0" encoding="UTF-8"?> <svg xmlns="http://www.w3.org/2000/svg" id="Layer_1" viewBox="0 0 360.46 146.05"><defs><style> .cls-1, .cls-2 { fill: #fff; } .cls-2 { fill-rule: evenodd; } </style></defs><path class="cls-2" d="M10.82,104.35C4.33,95.6.47,84.75.47,73.01.47,51.67,13.2,33.29,31.47,25.05v46.08c0,14.56-8.42,27.17-20.64,33.22Z"></path><path class="cls-2" d="M85.88,114.09c-9,7.21-20.41,11.51-32.83,11.51s-24.16-4.43-33.22-11.82c14.5-8.68,24.25-24.54,24.25-42.64V21.21c2.91-.5,5.92-.76,8.97-.76,2.74,0,5.44.21,8.08.62v50.08c0,18.3,9.97,34.33,24.75,42.93Z"></path><path class="cls-2" d="M105.64,73.02c0,11.88-3.94,22.84-10.59,31.65-12.58-5.93-21.3-18.73-21.3-33.52V24.68c18.75,8.02,31.89,26.65,31.89,48.35Z"></path><g><path class="cls-1" d="M136.82,70.65c.99-.09,1.82-.39,2.48-.87s1.16-1.29,1.5-2.42c.34-1.13.52-2.67.52-4.61v-19.5c0-.9-.06-1.56-.19-1.96s-.39-.68-.74-.82c-.37-.15-.95-.24-1.72-.28v-.71c1.19.07,2.98.1,5.37.1s4.32-.03,5.62-.1v.71c-.8.04-1.39.15-1.75.28-.36.15-.59.42-.73.82s-.19,1.05-.19,1.96v15.19c0,3.35-.21,5.72-.61,7.12-.5,1.74-1.56,3.13-3.19,4.2-1.63,1.07-3.74,1.6-6.35,1.6v-.7h-.01Z"></path><path class="cls-1" d="M171.56,64.67c-1.62-.07-4.33-.1-8.16-.1-5.18,0-9.05.03-11.6.1v-.71c.79-.04,1.36-.15,1.72-.28.37-.15.62-.42.74-.82.13-.4.19-1.05.19-1.96v-17.65c0-.9-.06-1.56-.19-1.96s-.39-.68-.74-.82c-.37-.15-.95-.24-1.72-.28v-.71c2.57.07,6.44.1,11.6.1,3.49,0,5.96-.03,7.44-.1-.16,1.97-.25,3.72-.25,5.26,0,1.04.03,1.85.1,2.42h-.82c-.36-2.54-.99-4.32-1.93-5.34-.92-1.02-2.22-1.53-3.92-1.53h-1.45c-.74,0-1.28.06-1.6.18-.33.12-.56.36-.68.7-.12.34-.18.89-.18,1.66v8.79h1.14c1.26,0,2.21-.46,2.86-1.39.65-.92,1.11-2.03,1.36-3.31h.82c-.07.99-.1,2.11-.1,3.35v1.71c0,1.22.07,2.89.21,5.06h-.82c-.5-3.13-1.94-4.7-4.35-4.7h-1.14v8.97c0,.76.06,1.31.18,1.66.12.34.34.58.68.7.33.12.86.18,1.6.18h1.75c1.69,0,3.04-.58,4.08-1.72,1.04-1.16,1.76-3.1,2.19-5.86h.82c-.07.79-.1,1.78-.1,3,.01,2.17.09,3.97.25,5.4Z"></path><path class="cls-1" d="M186.22,39.36c.74.24,1.48.58,2.24,1.04.27.15.49.27.7.36.21.09.37.15.52.15.21,0,.39-.12.5-.37s.21-.65.28-1.19h.82c-.12,1.59-.18,4.3-.18,8.11h-.82c-.09-1.28-.39-2.51-.88-3.66s-1.17-2.11-2.06-2.83c-.89-.73-1.93-1.08-3.11-1.08s-2.11.33-2.83.98c-.73.65-1.08,1.54-1.08,2.65,0,.83.18,1.56.53,2.17.36.62.86,1.19,1.5,1.69.64.5,1.63,1.2,2.95,2.08l1.14.79c1.39.92,2.51,1.74,3.31,2.42s1.47,1.48,1.97,2.4.77,1.97.77,3.19c0,1.51-.39,2.79-1.17,3.83s-1.84,1.81-3.19,2.33c-1.33.52-2.83.79-4.46.79-1.33,0-2.43-.12-3.31-.36s-1.69-.56-2.42-.96c-.52-.33-.92-.5-1.22-.5-.21,0-.39.12-.5.37s-.21.65-.28,1.19h-.82c.09-1.5.15-4.7.15-9.61h.82c.16,2.65.76,4.81,1.78,6.47,1.02,1.65,2.58,2.48,4.7,2.48,1.28,0,2.34-.34,3.17-1.04.83-.68,1.25-1.68,1.25-2.95s-.43-2.46-1.28-3.41c-.86-.95-2.21-2.02-4.06-3.2-1.42-.92-2.57-1.74-3.41-2.42-.86-.68-1.56-1.5-2.11-2.43-.55-.93-.82-2.02-.82-3.26,0-1.42.36-2.62,1.08-3.62.73-.98,1.69-1.72,2.91-2.19s2.54-.71,3.99-.71c1.2,0,2.18.12,2.92.36Z"></path><path class="cls-1" d="M203.49,54.49v6.2c0,.95.1,1.65.3,2.08.21.44.56.73,1.07.87.5.15,1.32.22,2.43.25v.79c-2.92-.07-5.09-.1-6.51-.1-1.19,0-2.68.03-4.48.07l-1.14.03v-.71c.79-.04,1.36-.15,1.72-.28.37-.15.62-.42.74-.82.13-.4.19-1.05.19-1.96v-17.65c0-.9-.06-1.56-.19-1.96s-.39-.68-.74-.82c-.37-.15-.95-.24-1.72-.28v-.71c1.22.07,3.01.1,5.41.1l3.94-.03c.47-.03,1.02-.03,1.63-.03,3.2,0,5.65.64,7.33,1.9,1.69,1.28,2.52,2.97,2.52,5.1,0,1.31-.33,2.55-.99,3.75s-1.78,2.19-3.37,3.01c-1.57.8-3.68,1.22-6.29,1.22h-1.85v-.03ZM204.29,40.43c-.3.16-.5.46-.62.89-.12.43-.18,1.07-.18,1.93v10.53h1.53c1.93,0,3.25-.62,3.99-1.85.74-1.23,1.1-2.91,1.1-5.01,0-2.3-.34-4-1.01-5.09-.68-1.1-1.81-1.63-3.4-1.63-.64-.01-1.11.07-1.41.24Z"></path><path class="cls-1" d="M237.55,64.67c-1.62-.07-4.33-.1-8.16-.1-5.18,0-9.05.03-11.6.1v-.71c.79-.04,1.36-.15,1.72-.28.37-.15.62-.42.74-.82.13-.4.19-1.05.19-1.96v-17.65c0-.9-.06-1.56-.19-1.96s-.39-.68-.74-.82c-.37-.15-.95-.24-1.72-.28v-.71c2.57.07,6.44.1,11.6.1,3.49,0,5.96-.03,7.44-.1-.16,1.97-.25,3.72-.25,5.26,0,1.04.03,1.85.1,2.42h-.82c-.36-2.54-.99-4.32-1.93-5.34-.92-1.02-2.22-1.53-3.92-1.53h-1.45c-.74,0-1.28.06-1.6.18-.33.12-.56.36-.68.7-.12.34-.18.89-.18,1.66v8.79h1.14c1.26,0,2.21-.46,2.86-1.39.65-.92,1.11-2.03,1.36-3.31h.82c-.07.99-.1,2.11-.1,3.35v1.71c0,1.22.07,2.89.21,5.06h-.82c-.5-3.13-1.94-4.7-4.35-4.7h-1.14v8.97c0,.76.06,1.31.18,1.66.12.34.34.58.68.7.33.12.86.18,1.6.18h1.75c1.69,0,3.04-.58,4.08-1.72,1.04-1.16,1.76-3.1,2.19-5.86h.82c-.07.79-.1,1.78-.1,3,0,2.17.09,3.97.25,5.4Z"></path><path class="cls-1" d="M264.5,63.1c-.64.74-1.33,1.26-2.06,1.59-.74.33-1.63.47-2.67.47-1.38,0-2.46-.3-3.26-.87s-1.31-1.57-1.54-2.97l-.64-3.56c-.31-1.74-.68-3.01-1.13-3.83s-1.17-1.23-2.19-1.23h-2.31v8.19c0,.9.06,1.56.19,1.96s.37.68.73.82c.36.15.93.24,1.75.28v.71c-1.28-.07-3.07-.1-5.37-.1-2.54,0-4.42.03-5.62.1v-.71c.79-.04,1.36-.15,1.72-.28.37-.15.62-.42.74-.82.13-.4.19-1.05.19-1.96v-17.65c0-.9-.06-1.56-.19-1.96s-.39-.68-.74-.82c-.37-.15-.95-.24-1.72-.28v-.71c1.22.07,3.01.1,5.41.1l3.94-.03c.47-.03,1.02-.03,1.63-.03,3.28,0,5.74.53,7.39,1.6,1.65,1.07,2.48,2.6,2.48,4.6,0,1.69-.62,3.17-1.85,4.45s-3.28,2.09-6.12,2.42c2.14.19,3.72.65,4.78,1.39,1.04.74,1.72,1.84,2.03,3.31l.82,3.66c.19.95.42,1.62.65,1.99.25.39.59.56,1.05.56.28-.03.53-.09.73-.21.21-.12.43-.33.7-.61l.5.42ZM249.49,40.43c-.3.16-.5.46-.62.89-.12.43-.18,1.07-.18,1.93v8.75h1.53c1.94,0,3.28-.52,4-1.54.73-1.04,1.08-2.49,1.08-4.36s-.34-3.41-1.04-4.42c-.68-.99-1.81-1.5-3.38-1.5-.62,0-1.1.09-1.39.25Z"></path><path class="cls-1" d="M150.07,82.89c-.86.04-1.48.15-1.87.28-.39.15-.65.42-.8.82s-.21,1.05-.21,1.96v18.08c0,.76.06,1.31.18,1.66.12.34.33.58.62.7s.77.18,1.44.18h1.75c1.62,0,3.01-.73,4.18-2.17,1.17-1.45,1.94-3.37,2.3-5.77h.82c-.07.8-.1,1.85-.1,3.13,0,2.28.09,4.15.25,5.62-1.62-.07-4.33-.1-8.16-.1-5.18,0-9.05.03-11.6.1v-.71c.79-.04,1.36-.15,1.72-.28.37-.15.62-.42.74-.82.13-.4.19-1.05.19-1.96v-17.65c0-.9-.06-1.56-.19-1.96s-.39-.68-.74-.82c-.37-.15-.95-.24-1.72-.28v-.71c1.22.07,3.08.1,5.62.1s4.29-.03,5.59-.1v.7h-.01Z"></path><path class="cls-1" d="M183.1,82.89c-.79.12-1.36.33-1.72.61-.37.28-.62.74-.74,1.35-.13.62-.19,1.53-.19,2.74v9.43c0,3.4-.49,5.9-1.45,7.55-.64,1.04-1.57,1.85-2.77,2.43-1.22.58-2.7.88-4.45.88-2.76,0-4.89-.59-6.41-1.78-1.1-.88-1.82-1.99-2.21-3.32s-.56-3.22-.56-5.64v-11.18c0-.9-.06-1.56-.19-1.96s-.39-.68-.74-.82c-.37-.15-.95-.24-1.72-.28v-.71c1.22.07,3.06.1,5.55.1s4.36-.03,5.67-.1v.71c-.86.04-1.48.15-1.87.28-.39.15-.65.42-.8.82s-.21,1.05-.21,1.96v13.42c0,2.49.36,4.33,1.08,5.5.73,1.17,2,1.76,3.83,1.76,2.37,0,4.05-.8,5.01-2.4.98-1.6,1.45-3.87,1.45-6.82v-9.4c0-1.38-.09-2.4-.25-3.06-.16-.67-.49-1.14-.96-1.44s-1.22-.5-2.24-.62v-.71c.9.07,2.18.1,3.84.1,1.33,0,2.36-.03,3.1-.1v.7h-.03Z"></path><path class="cls-1" d="M208.4,82.89c-.79.12-1.36.33-1.72.61-.37.28-.62.74-.74,1.35-.13.62-.19,1.53-.19,2.74v19.86l-.86-.03-.96.03-15.45-19.58v13.67c0,1.39.07,2.43.21,3.08.15.65.44,1.13.92,1.42s1.25.5,2.31.62v.71c-.92-.07-2.21-.1-3.84-.1-1.31,0-2.34.03-3.1.1v-.71c.79-.12,1.36-.33,1.72-.61.37-.28.62-.74.74-1.35.13-.62.19-1.53.19-2.74v-16.02c0-.9-.06-1.56-.19-1.96s-.39-.68-.74-.82c-.37-.15-.95-.24-1.72-.28v-.71c.76.07,1.79.1,3.1.1,1.19,0,2.21-.03,3.06-.1l13.78,16.98v-11.14c0-1.39-.07-2.43-.21-3.08-.15-.65-.44-1.13-.92-1.42s-1.25-.5-2.31-.62v-.71c.92.07,2.21.1,3.84.1,1.33,0,2.36-.03,3.1-.1v.7Z"></path><path class="cls-1" d="M232.04,85.33c2.3,2.11,3.46,5.16,3.46,9.17,0,2.58-.56,4.85-1.69,6.78-1.13,1.93-2.76,3.44-4.88,4.51s-4.66,1.6-7.59,1.6l-2.21-.03c-1.38-.04-2.37-.07-3-.07-2.45,0-4.27.03-5.49.1v-.71c.79-.04,1.36-.15,1.72-.28.37-.15.62-.42.74-.82.13-.4.19-1.05.19-1.96v-17.65c0-.9-.06-1.56-.19-1.96s-.39-.68-.74-.82c-.37-.15-.95-.24-1.72-.28v-.71c.99.07,2.43.1,4.3.1h1.1l1.42-.03c1.94-.04,3.34-.07,4.17-.07,4.64-.03,8.11,1.02,10.41,3.13ZM219.95,83.06c-.37.16-.62.46-.77.89s-.21,1.07-.21,1.93v17.8c0,.86.07,1.5.21,1.93s.4.73.77.89.93.25,1.69.25c2.88,0,4.91-1.01,6.12-3.01,1.22-2,1.81-5.04,1.81-9.09s-.62-7.04-1.87-8.96-3.28-2.86-6.11-2.86c-.73,0-1.28.07-1.65.24Z"></path><path class="cls-1" d="M255.19,82.29c1.01.4,2,.98,2.97,1.71.28.21.52.33.71.33.24,0,.43-.18.56-.52.15-.34.25-.89.33-1.62h.82c-.09,1.62-.15,4.48-.15,8.62h-.82c-.19-1.62-.47-2.92-.83-3.92-.37-.99-.98-1.84-1.84-2.52-.56-.55-1.28-.98-2.11-1.28-.83-.31-1.69-.46-2.57-.46-1.66,0-3.04.56-4.15,1.69-1.1,1.13-1.91,2.61-2.43,4.46-.52,1.85-.79,3.89-.79,6.08,0,8.22,2.28,12.31,6.84,12.31,1.04,0,1.88-.24,2.52-.71.31-.21.53-.46.65-.74.13-.28.19-.65.19-1.1v-3.49c0-1.11-.09-1.93-.28-2.43s-.53-.86-1.01-1.05c-.49-.19-1.25-.31-2.3-.36v-.71c1.47.07,3.5.1,6.08.1,2.11,0,3.71-.03,4.78-.1v.71c-.47.04-.82.15-1.04.28-.21.15-.36.42-.44.82s-.12,1.05-.12,1.96v7.04h-.71c-.03-.5-.12-.96-.3-1.39s-.42-.64-.73-.64c-.4,0-1.04.25-1.93.74-2.06,1.19-4,1.78-5.84,1.78-4.11,0-7.25-1.13-9.43-3.37-2.18-2.24-3.28-5.4-3.28-9.45,0-2.65.55-5,1.66-7.01,1.1-2.02,2.62-3.59,4.57-4.7,1.94-1.11,4.17-1.68,6.66-1.68,1.5,0,2.74.19,3.75.61Z"></path><path class="cls-1" d="M285.78,106.1c.4.36.8.55,1.17.56v.71c-1.42-.07-3.23-.1-5.41-.1-2.42,0-4.23.03-5.41.1v-.71c.9-.04,1.54-.16,1.93-.34s.56-.49.56-.95c0-.43-.15-.99-.43-1.71l-2.14-5.84h-7.76l-.92,2.46c-.67,1.71-.99,3.03-.99,3.94s.27,1.48.8,1.84c.53.34,1.32.53,2.37.59v.71c-1.62-.07-3.08-.1-4.42-.1-1.1,0-1.99.03-2.7.1v-.71c1.16-.21,2.18-1.45,3.06-3.74l8.11-20.82c.27.03.68.03,1.25.03s.98-.01,1.22-.03l8.65,22.28c.31.8.67,1.36,1.07,1.72ZM275.82,97.12l-3.53-9.61-3.71,9.61h7.24Z"></path><path class="cls-1" d="M309.53,106.1c.4.36.8.55,1.17.56v.71c-1.42-.07-3.23-.1-5.41-.1-2.42,0-4.23.03-5.41.1v-.71c.9-.04,1.54-.16,1.93-.34s.56-.49.56-.95c0-.43-.15-.99-.43-1.71l-2.14-5.84h-7.76l-.92,2.46c-.67,1.71-.99,3.03-.99,3.94s.27,1.48.8,1.84c.53.34,1.32.53,2.37.59v.71c-1.62-.07-3.08-.1-4.42-.1-1.1,0-1.99.03-2.7.1v-.71c1.16-.21,2.18-1.45,3.06-3.74l8.11-20.82c.27.03.68.03,1.25.03s.98-.01,1.22-.03l8.65,22.28c.3.8.65,1.36,1.07,1.72ZM299.56,97.12l-3.53-9.61-3.71,9.61h7.24Z"></path><path class="cls-1" d="M335.08,105.81c-.64.74-1.33,1.26-2.06,1.59-.74.33-1.63.47-2.67.47-1.38,0-2.46-.3-3.26-.88s-1.31-1.57-1.54-2.97l-.64-3.56c-.31-1.74-.68-3.01-1.13-3.83s-1.17-1.23-2.19-1.23h-2.31v8.19c0,.9.06,1.56.19,1.96.13.4.37.68.73.82.36.15.93.24,1.75.28v.71c-1.28-.07-3.07-.1-5.37-.1-2.54,0-4.42.03-5.62.1v-.71c.79-.04,1.36-.15,1.72-.28.37-.15.62-.42.74-.82.13-.4.19-1.05.19-1.96v-17.65c0-.9-.06-1.56-.19-1.96-.13-.4-.39-.68-.74-.82-.37-.15-.95-.24-1.72-.28v-.71c1.22.07,3.01.1,5.41.1l3.94-.03c.47-.03,1.02-.03,1.63-.03,3.28,0,5.74.53,7.39,1.6,1.65,1.07,2.48,2.6,2.48,4.6,0,1.69-.62,3.17-1.85,4.45s-3.28,2.09-6.12,2.42c2.14.19,3.72.65,4.78,1.39,1.04.74,1.72,1.84,2.03,3.31l.82,3.66c.19.95.42,1.62.65,1.99.25.39.59.56,1.05.56.28-.03.53-.09.73-.21.21-.12.43-.33.7-.61l.5.42ZM320.07,83.14c-.3.16-.5.46-.62.89s-.18,1.07-.18,1.93v8.75h1.53c1.94,0,3.28-.52,4-1.54.73-1.04,1.08-2.49,1.08-4.36s-.34-3.41-1.04-4.42c-.68-.99-1.81-1.5-3.38-1.5-.62,0-1.1.09-1.39.25Z"></path><path class="cls-1" d="M356.97,85.33c2.3,2.11,3.46,5.16,3.46,9.17,0,2.58-.56,4.85-1.69,6.78-1.13,1.93-2.76,3.44-4.88,4.51-2.12,1.07-4.66,1.6-7.59,1.6l-2.21-.03c-1.38-.04-2.37-.07-3-.07-2.45,0-4.27.03-5.49.1v-.71c.79-.04,1.36-.15,1.72-.28.37-.15.62-.42.74-.82.13-.4.19-1.05.19-1.96v-17.65c0-.9-.06-1.56-.19-1.96-.13-.4-.39-.68-.74-.82-.37-.15-.95-.24-1.72-.28v-.71c.99.07,2.43.1,4.3.1h1.1l1.42-.03c1.94-.04,3.34-.07,4.17-.07,4.64-.03,8.11,1.02,10.41,3.13ZM344.88,83.06c-.37.16-.62.46-.77.89s-.21,1.07-.21,1.93v17.8c0,.86.07,1.5.21,1.93s.4.73.77.89.93.25,1.69.25c2.88,0,4.91-1.01,6.12-3.01s1.81-5.04,1.81-9.09-.62-7.04-1.87-8.96c-1.25-1.91-3.28-2.86-6.11-2.86-.73,0-1.28.07-1.65.24Z"></path></g></svg> 